<svg width="318" height="129" viewBox="0 0 318 129" fill="none" xmlns="http://www.w3.org/2000/svg">
<path fill-rule="evenodd" clip-rule="evenodd" d="M252.23 57.48L248.74 54.08L237.31 48.73L230.87 36.47L230.52 35.63C230.671 35.2842 230.729 34.9052 230.69 34.53C230.661 34.3272 230.618 34.1266 230.56 33.93C230.51 33.8165 230.485 33.6939 230.485 33.57C230.485 33.4461 230.51 33.3235 230.56 33.21C230.658 33.0525 230.779 32.9108 230.92 32.79C231.065 32.6591 231.218 32.5388 231.38 32.43C231.49 32.36 231.38 32.04 231.18 32.09C230.873 32.1808 230.599 32.3578 230.39 32.6C230.25 32.77 230.15 32.97 230.04 33.11C229.827 32.8843 229.648 32.6281 229.51 32.35C229.27 31.89 228.7 30.29 228.51 29.79C228.501 29.7539 228.482 29.721 228.455 29.6947C228.429 29.6683 228.396 29.6494 228.36 29.64C228.324 29.6317 228.287 29.6329 228.252 29.6434C228.217 29.6539 228.185 29.6734 228.16 29.7C228.141 29.7316 228.13 29.7679 228.13 29.805C228.13 29.8421 228.141 29.8784 228.16 29.91L228.84 32.28C228.847 32.3053 228.845 32.3323 228.834 32.3561C228.823 32.3799 228.804 32.3991 228.78 32.41C228.761 32.4283 228.736 32.4386 228.71 32.4386C228.684 32.4386 228.659 32.4283 228.64 32.41L227.09 29.83C227.065 29.7913 227.027 29.7628 226.983 29.75C226.939 29.7371 226.892 29.7407 226.85 29.76C226.826 29.7702 226.805 29.7852 226.788 29.8042C226.771 29.8232 226.758 29.8456 226.75 29.87C226.731 29.9181 226.731 29.9719 226.75 30.02L228.16 32.77C228.169 32.7741 228.176 32.7803 228.182 32.7879C228.188 32.7956 228.192 32.8045 228.193 32.814C228.195 32.8235 228.194 32.8332 228.191 32.8423C228.188 32.8515 228.183 32.8598 228.177 32.8666C228.17 32.8734 228.161 32.8784 228.152 32.8813C228.143 32.8842 228.133 32.8849 228.124 32.8833C228.115 32.8817 228.106 32.8778 228.098 32.872C228.09 32.8662 228.084 32.8587 228.08 32.85L226.52 30.69C226.485 30.6616 226.44 30.6461 226.395 30.6461C226.35 30.6461 226.305 30.6616 226.27 30.69C226.241 30.723 226.224 30.7657 226.224 30.81C226.224 30.8543 226.241 30.897 226.27 30.93L227.65 33.13L226.38 31.92C226.364 31.9006 226.345 31.8851 226.322 31.8746C226.3 31.8642 226.275 31.8592 226.25 31.86C226.224 31.8584 226.197 31.863 226.173 31.8734C226.149 31.8839 226.127 31.8998 226.11 31.92C226.081 31.957 226.065 32.0028 226.065 32.05C226.065 32.0972 226.081 32.143 226.11 32.18C226.634 32.686 227.116 33.2345 227.55 33.82C228.21 34.8158 228.757 35.8825 229.18 37L234.29 50.66C234.525 51.2532 234.937 51.7596 235.47 52.11L250 61.56L254 61.46L252.23 57.48Z" fill="white" stroke="#414042" stroke-width="0.5"/>
<path fill-rule="evenodd" clip-rule="evenodd" d="M69.26 43.08C70.48 40.08 74.5 32.41 74.5 32.41L76.36 33.24C76.36 33.24 73.36 41.79 72.36 44.86C72.36 44.86 72.21 45.38 71.96 46.28C71.4 45.97 70.66 46.18 70.12 45.98C69.58 45.78 68.98 45.07 68.44 44.98C68.92 43.81 69.26 43.08 69.26 43.08Z" fill="url(#paint0_linear)"/>
<path fill-rule="evenodd" clip-rule="evenodd" d="M79.16 31L77.7 31.94L79.43 30C79.4617 29.9681 79.4796 29.925 79.4796 29.88C79.4796 29.835 79.4617 29.7919 79.43 29.76C79.3964 29.7276 79.3516 29.7095 79.305 29.7095C79.2584 29.7095 79.2135 29.7276 79.18 29.76L77.27 31.58L77.18 31.49L79.05 29.08C79.0696 29.0625 79.0852 29.0408 79.0955 29.0167C79.1059 28.9925 79.1108 28.9663 79.11 28.94C79.1094 28.9154 79.1038 28.8911 79.0935 28.8688C79.0832 28.8464 79.0684 28.8264 79.05 28.81C79.0145 28.7816 78.9704 28.7661 78.925 28.7661C78.8796 28.7661 78.8355 28.7816 78.8 28.81L76.8 31C76.7813 31.0183 76.7562 31.0286 76.73 31.0286C76.7038 31.0286 76.6787 31.0183 76.66 31C76.6462 30.9811 76.6387 30.9584 76.6387 30.935C76.6387 30.9116 76.6462 30.8889 76.66 30.87L77.76 28.68C77.7723 28.6551 77.7787 28.6278 77.7787 28.6C77.7787 28.5722 77.7723 28.5449 77.76 28.52C77.7355 28.4693 77.6926 28.43 77.64 28.41C77.5969 28.3936 77.5495 28.3927 77.5057 28.4072C77.462 28.4218 77.4247 28.451 77.4 28.49C77.14 28.95 76.29 30.4 75.97 30.81C75.7805 31.0527 75.5584 31.2681 75.31 31.45C75.23 31.3 75.18 31.08 75.07 30.89C74.9115 30.6142 74.6749 30.3915 74.39 30.25C74.18 30.15 74.04 30.45 74.14 30.54C74.2798 30.6712 74.407 30.8152 74.52 30.97C74.6291 31.1184 74.7198 31.2796 74.79 31.45C74.8521 31.6862 74.8198 31.9372 74.7 32.15C74.7 32.23 74.63 32.31 74.59 32.38C74.55 32.45 70.59 40.02 69.35 43.05C69.35 43.05 69.01 43.78 68.52 44.91C69.06 45.04 69.52 45.69 70.2 45.91C70.88 46.13 71.48 45.91 72.04 46.21C72.29 45.31 72.44 44.79 72.44 44.79C73.22 42.5 75.06 37.18 75.95 34.61C76.4899 33.8668 77.092 33.171 77.75 32.53C78.2724 32.034 78.838 31.5856 79.44 31.19C79.4795 31.1634 79.5076 31.123 79.5187 31.0767C79.5298 31.0304 79.5231 30.9816 79.5 30.94C79.5028 30.8938 79.4878 30.8484 79.458 30.813C79.4282 30.7776 79.386 30.7551 79.34 30.75C79.3099 30.75 79.2803 30.7572 79.2535 30.771C79.2268 30.7847 79.2037 30.8046 79.1861 30.829C79.1685 30.8534 79.157 30.8816 79.1524 30.9114C79.1479 30.9411 79.1505 30.9715 79.16 31Z" fill="white" stroke="#414042" stroke-width="0.5" stroke-linecap="round" stroke-linejoin="round"/>
<path fill-rule="evenodd" clip-rule="evenodd" d="M98.44 25H103.09C103.159 25 103.225 25.0274 103.274 25.0762C103.323 25.1249 103.35 25.191 103.35 25.26V41.47C103.35 41.539 103.323 41.6051 103.274 41.6538C103.225 41.7026 103.159 41.73 103.09 41.73H98.44C97.7952 41.73 97.1567 41.603 96.561 41.3562C95.9653 41.1095 95.4241 40.7478 94.9681 40.2919C94.5122 39.836 94.1505 39.2947 93.9038 38.699C93.657 38.1033 93.53 37.4648 93.53 36.82V29.92C93.5274 29.274 93.6525 28.6339 93.8982 28.0364C94.1439 27.4389 94.5053 26.896 94.9616 26.4387C95.418 25.9814 95.9602 25.6189 96.5572 25.372C97.1541 25.1251 97.794 24.9987 98.44 25Z" fill="white" stroke="#414042" stroke-width="0.5"/>
<path d="M169.91 12.03H149.22V57.91H169.91V12.03Z" fill="white" stroke="#414042" stroke-width="0.5"/>
<path fill-rule="evenodd" clip-rule="evenodd" d="M131.79 3.28H151.51C152.589 3.28 153.625 3.7088 154.388 4.47208C155.151 5.23535 155.58 6.27057 155.58 7.35V59.4C155.58 60.4794 155.151 61.5147 154.388 62.2779C153.625 63.0412 152.589 63.47 151.51 63.47H131.79C123.833 63.47 116.203 60.3093 110.577 54.6832C104.951 49.0571 101.79 41.4265 101.79 33.47V33.35C101.79 25.3935 104.951 17.7629 110.577 12.1368C116.203 6.51071 123.833 3.35 131.79 3.35V3.28Z" fill="white" stroke="#414042" stroke-width="0.5"/>
<path d="M226.35 33.39H236.5C242.865 33.39 248.97 35.9186 253.471 40.4194C257.971 44.9203 260.5 51.0248 260.5 57.39V78.76C260.487 87.4441 263.923 95.778 270.053 101.929C276.184 108.08 284.506 111.544 293.19 111.56L317.72 111.68" stroke="#414042" stroke-width="0.5"/>
<path fill-rule="evenodd" clip-rule="evenodd" d="M221.38 41.83H216.73C216.661 41.83 216.595 41.8026 216.546 41.7538C216.497 41.7051 216.47 41.639 216.47 41.57V25.38C216.47 25.311 216.497 25.2449 216.546 25.1962C216.595 25.1474 216.661 25.12 216.73 25.12H221.38C222.025 25.1213 222.663 25.2496 223.258 25.4976C223.853 25.7455 224.394 26.1083 224.849 26.5652C225.304 27.022 225.665 27.564 225.91 28.1603C226.156 28.7565 226.281 29.3952 226.28 30.04V36.94C226.279 37.5848 226.15 38.223 225.902 38.8182C225.654 39.4134 225.292 39.954 224.835 40.409C224.378 40.864 223.836 41.2245 223.24 41.4701C222.643 41.7156 222.005 41.8413 221.36 41.84L221.38 41.83Z" fill="white" stroke="#414042" stroke-width="0.5"/>
<path fill-rule="evenodd" clip-rule="evenodd" d="M188 63.56H168.28C167.201 63.5547 166.169 63.1225 165.408 62.3579C164.647 61.5934 164.22 60.5586 164.22 59.48L164.31 7.39C164.311 6.85552 164.418 6.32653 164.624 5.83324C164.829 5.33994 165.13 4.89201 165.509 4.515C165.888 4.13799 166.337 3.8393 166.832 3.63598C167.326 3.43266 167.855 3.32868 168.39 3.33H188.11C192.054 3.32999 195.959 4.10762 199.602 5.61839C203.245 7.12915 206.554 9.34341 209.341 12.1345C212.127 14.9255 214.336 18.2386 215.841 21.8841C217.345 25.5297 218.117 29.4361 218.11 33.38V33.5C218.11 37.4447 217.332 41.3507 215.821 44.9944C214.309 48.6381 212.094 51.9479 209.302 54.7344C206.51 57.521 203.196 59.7295 199.549 61.2336C195.902 62.7377 191.995 63.5079 188.05 63.5L188 63.56Z" fill="white" stroke="#414042" stroke-width="0.5"/>
<path fill-rule="evenodd" clip-rule="evenodd" d="M130.67 17H143C143.54 17 144.074 17.1063 144.573 17.3129C145.071 17.5194 145.525 17.8221 145.906 18.2038C146.288 18.5854 146.591 19.0385 146.797 19.5372C147.004 20.0358 147.11 20.5703 147.11 21.11V33.5C147.098 36.7489 146.124 39.9215 144.31 42.6172C142.497 45.3128 139.925 47.4106 136.92 48.6457C133.915 49.8808 130.611 50.1979 127.426 49.5568C124.241 48.9157 121.317 47.3452 119.024 45.0436C116.731 42.7421 115.171 39.8127 114.542 36.6253C113.912 33.4379 114.241 30.1354 115.487 27.1349C116.733 24.1344 118.84 21.5703 121.543 19.7665C124.245 17.9627 127.421 17 130.67 17Z" fill="#148FCC"/>
<path fill-rule="evenodd" clip-rule="evenodd" d="M130.44 41.64C130.538 41.7111 130.661 41.7405 130.781 41.7218C130.9 41.703 131.008 41.6377 131.08 41.54L136.27 34.32L137.48 32.65C137.557 32.5601 137.606 32.4495 137.62 32.3321C137.634 32.2147 137.613 32.0956 137.56 31.99C137.506 31.8836 137.423 31.7949 137.32 31.7346C137.217 31.6743 137.099 31.6449 136.98 31.65H129.17L131.08 25.84C131.118 25.735 131.117 25.6196 131.077 25.5154C131.036 25.4113 130.959 25.3254 130.86 25.274C130.76 25.2225 130.646 25.2089 130.537 25.2358C130.429 25.2627 130.334 25.3282 130.27 25.42L125.08 32.64L123.87 34.39C123.796 34.4816 123.75 34.592 123.736 34.7086C123.722 34.8252 123.74 34.9435 123.79 35.05C123.843 35.1549 123.925 35.2425 124.026 35.3027C124.127 35.3629 124.243 35.3932 124.36 35.39H132.18L130.27 41.21C130.257 41.2903 130.266 41.3728 130.296 41.4485C130.325 41.5242 130.375 41.5904 130.44 41.64Z" fill="white"/>
<path d="M93.66 33.39H82.15C75.7848 33.39 69.6803 35.9186 65.1794 40.4194C60.6786 44.9203 58.15 51.0248 58.15 57.39V78.76C58.1579 83.0603 57.3185 87.3201 55.6798 91.2959C54.0411 95.2718 51.6353 98.8859 48.5996 101.932C45.5639 104.978 41.9579 107.396 37.9876 109.048C34.0172 110.7 29.7603 111.553 25.46 111.56L0.929993 111.68" stroke="#414042" stroke-width="0.5"/>
<path fill-rule="evenodd" clip-rule="evenodd" d="M76.51 55L76.61 54.83C76.3687 53.7304 76.3112 52.5984 76.44 51.48L76.36 50.58L74.82 49.41L73.2 51.01C73.2422 51.2736 73.2313 51.5431 73.1677 51.8024C73.1042 52.0618 72.9893 52.3058 72.83 52.52C72.6671 52.731 72.462 52.9058 72.2279 53.0332C71.9938 53.1606 71.7356 53.2378 71.47 53.26V54.69L76.11 56.76L76.51 55Z" fill="white" stroke="#414042" stroke-width="0.5" stroke-linecap="round" stroke-linejoin="round"/>
<path fill-rule="evenodd" clip-rule="evenodd" d="M76.51 55L76.61 54.83C76.3687 53.7304 76.3112 52.5984 76.44 51.48L76.36 50.58L74.82 49.41L73.2 51.01C73.2422 51.2736 73.2313 51.5431 73.1677 51.8024C73.1042 52.0618 72.9893 52.3058 72.83 52.52C72.6671 52.731 72.462 52.9058 72.2279 53.0332C71.9938 53.1606 71.7356 53.2378 71.47 53.26V54.69L76.11 56.76L76.51 55Z" fill="white" stroke="#414042" stroke-width="0.5" stroke-linecap="round" stroke-linejoin="round"/>
<path fill-rule="evenodd" clip-rule="evenodd" d="M69.56 76L78.46 79.61L80.89 101.36C80.9829 101.901 81.0197 102.451 81 103L80 124.5H76.52L75.8 110.91C75.8 110.6 75.67 109.67 75.54 108.69C75.1309 106.691 74.9897 104.646 75.12 102.61L71.93 88.91C71.5674 87.4518 70.8454 86.1076 69.83 85C69.83 85 67.22 81.63 69.56 76Z" fill="white" stroke="#414042" stroke-width="0.5"/>
<path fill-rule="evenodd" clip-rule="evenodd" d="M66.27 76.39C65.79 79.39 64.84 83.01 64.89 85.87C64.89 85.87 64.95 95.26 64.44 102.29C63.7424 104.055 63.3763 105.933 63.36 107.83C63.26 111.93 62.58 124.28 62.58 124.28H66.05L69.83 103.81C69.9805 103.097 70.0907 102.376 70.16 101.65L71.79 83.65L72.2 77.2L66.27 76.39Z" fill="white" stroke="#414042" stroke-width="0.5"/>
<path fill-rule="evenodd" clip-rule="evenodd" d="M62.58 124.27H66.05C66.52 127.27 72.2 125.19 72.17 127.46V128.08L62.17 127.94L62.58 124.27Z" fill="white" stroke="#414042" stroke-width="0.5"/>
<path fill-rule="evenodd" clip-rule="evenodd" d="M76.54 124.46H80C80.46 127.46 86.15 125.39 86.12 127.65V128.27L76.12 128.14L76.54 124.46Z" fill="white" stroke="#414042" stroke-width="0.5"/>
<path fill-rule="evenodd" clip-rule="evenodd" d="M87.47 42.68C86.21 38.25 85.47 36.38 85.47 36.38H85.4C85.2188 35.8526 85.1013 35.3053 85.05 34.75C85.062 34.4549 85.0385 34.1595 84.98 33.87C84.91 33.58 84.98 33.21 84.9 32.87C84.82 32.53 84.9 32.15 84.67 32.12C84.44 32.09 84.47 32.51 84.47 32.63V33.78C84.4578 33.787 84.444 33.7907 84.43 33.7907C84.416 33.7907 84.4022 33.787 84.39 33.78C84.3791 33.7853 84.3671 33.7881 84.355 33.7881C84.3429 33.7881 84.3309 33.7853 84.32 33.78V33.53C84.3299 33.2288 84.3098 32.9273 84.26 32.63C84.2281 32.4817 84.2281 32.3283 84.26 32.18C84.29 32.0248 84.29 31.8652 84.26 31.71C84.2458 31.6855 84.2254 31.6651 84.2008 31.6511C84.1762 31.637 84.1483 31.6297 84.12 31.63C84.0934 31.6314 84.0676 31.6395 84.0448 31.6535C84.0221 31.6675 84.0033 31.6869 83.99 31.71C83.9092 31.8233 83.8703 31.9612 83.88 32.1C83.88 32.5333 83.88 32.9633 83.88 33.39C83.88 33.3979 83.8785 33.4057 83.8754 33.413C83.8724 33.4202 83.868 33.4269 83.8624 33.4324C83.8569 33.438 83.8502 33.4424 83.843 33.4454C83.8357 33.4484 83.8279 33.45 83.82 33.45C83.82 33.15 83.63 31.66 83.62 31.51C83.61 31.36 83.62 31.05 83.43 31.04C83.24 31.03 83.2 31.21 83.23 31.47V32L83.41 33.51C83.41 33.51 83.41 33.57 83.41 33.58H83.34L83.18 32.58C83.1 32.11 83.02 31.58 82.83 31.58C82.64 31.58 82.66 32.11 82.73 32.58C82.82 33.25 82.93 33.81 82.93 33.81L83.28 35.7C83 35.8 82.66 35.55 82.36 35.25C82.2557 35.133 82.1253 35.0422 81.9794 34.9848C81.8334 34.9275 81.6761 34.9053 81.52 34.92C81.37 34.99 81.3 35.23 81.45 35.32C81.7499 35.4405 82.0221 35.6208 82.25 35.85C82.4412 36.1743 82.6806 36.4677 82.96 36.72L83.87 37.26L83.93 37.34C84.2715 40.0777 84.4684 42.8315 84.52 45.59C84.5178 47.1666 84.6618 48.74 84.95 50.29L76.2 58.97C75.7585 59.4264 75.5106 60.0358 75.5081 60.6707C75.5056 61.3057 75.7487 61.917 76.1866 62.3769C76.6244 62.8367 77.2232 63.1094 77.8575 63.138C78.4918 63.1665 79.1126 62.9487 79.59 62.53C80.53 61.64 80.81 60.53 81.91 59.53L87.91 52.72C88.3673 52.1911 88.6255 51.5191 88.64 50.82C88.6307 48.0654 88.2369 45.3257 87.47 42.68Z" fill="white" stroke="#414042" stroke-width="0.5" stroke-linecap="round" stroke-linejoin="round"/>
<path fill-rule="evenodd" clip-rule="evenodd" d="M68.35 45C69.5397 45.1768 70.7002 45.5131 71.8 46C71.53 47.45 71.32 48.73 70.71 51.57C70.7005 51.7308 70.6668 51.8893 70.61 52.04C70.7315 52.3415 70.9003 52.6216 71.11 52.87L72.11 53.16C73.1293 53.989 74.3876 54.4692 75.7 54.53H76.49L80.72 56.33L80.23 62.58C77.67 70.47 78.46 79.58 78.46 79.58C75.67 80.42 69.01 80.06 65.93 78.83C65.65 73.73 65.2 66.38 65.62 61.29L65.89 57.9L66.29 54.42C66.4488 52.1298 66.8819 49.867 67.58 47.68C68 46.47 68 46.11 68.35 45Z" fill="#08C7FB"/>
<path fill-rule="evenodd" clip-rule="evenodd" d="M76 59L82.74 52.33C83.8491 53.099 84.811 54.0609 85.58 55.17L81.76 59.52C81.0299 60.5818 80.2385 61.6002 79.39 62.57C78.9166 63.0195 78.284 63.2626 77.6313 63.2457C76.9787 63.2289 76.3595 62.9534 75.91 62.48C75.4604 62.0066 75.2174 61.374 75.2343 60.7214C75.2511 60.0687 75.5266 59.4495 76 59Z" fill="#08C7FB"/>
<path d="M85.57 55.16C84.0988 56.5368 82.7933 58.0806 81.68 59.76C81.0651 60.7842 80.6225 61.9024 80.37 63.07C80.1 64.22 79.83 65.33 79.55 66.47C79.1616 68.014 78.8677 69.5802 78.67 71.16C78.3818 73.448 78.2781 75.7554 78.36 78.06C78.3435 78.5621 78.377 79.0646 78.46 79.56C75.67 80.4 69.01 80.04 65.93 78.81C65.65 73.71 65.2 66.36 65.62 61.27L65.89 57.88L66.29 54.4C66.4488 52.1098 66.8819 49.847 67.58 47.66C67.98 46.47 67.98 46.11 68.35 44.99C69.5397 45.1668 70.7002 45.5031 71.8 45.99C71.6787 46.8912 71.5119 47.7857 71.3 48.67C71.18 49.28 71.06 49.89 70.93 50.51C70.8 51.13 70.34 52.29 71.08 52.81C71.2748 52.9111 71.4839 52.9819 71.7 53.02C72.2875 53.2879 72.8526 53.6022 73.39 53.96C74.084 54.2511 74.8198 54.43 75.57 54.49C75.87 54.4998 76.1682 54.54 76.46 54.61C77.3913 54.852 78.2958 55.187 79.16 55.61L82.73 52.37L85.57 55.21" stroke="#414042" stroke-width="0.5" stroke-linecap="round" stroke-linejoin="round"/>
<path fill-rule="evenodd" clip-rule="evenodd" d="M77.11 51.76L75.52 52.45L74.74 51.17L75.25 50.32L77.14 50.77L77.11 51.76Z" fill="white" stroke="#414042" stroke-width="0.5" stroke-linecap="round" stroke-linejoin="round"/>
<path fill-rule="evenodd" clip-rule="evenodd" d="M73.66 47.62L74.17 45.75L75.17 45.21L77.17 46.35C77.4182 48.0043 77.502 49.6792 77.42 51.35C77.4255 51.415 77.4177 51.4805 77.3971 51.5424C77.3765 51.6043 77.3434 51.6613 77.3 51.71C77.2554 51.758 77.2012 51.7962 77.1409 51.822C77.0806 51.8479 77.0156 51.8608 76.95 51.86C76.5339 51.83 76.1161 51.83 75.7 51.86C75.7 51.86 73.48 49.69 73.44 49.64C73.4 49.59 73.66 47.62 73.66 47.62Z" fill="white" stroke="#414042" stroke-width="0.5" stroke-linecap="round" stroke-linejoin="round"/>
<path fill-rule="evenodd" clip-rule="evenodd" d="M73.66 47.62L74.17 45.75L75.17 45.21L77.17 46.35C77.4182 48.0043 77.502 49.6792 77.42 51.35C77.4255 51.415 77.4177 51.4805 77.3971 51.5424C77.3765 51.6043 77.3434 51.6613 77.3 51.71C77.2554 51.758 77.2012 51.7962 77.1409 51.822C77.0806 51.8479 77.0156 51.8608 76.95 51.86C76.5339 51.83 76.1161 51.83 75.7 51.86C75.7 51.86 73.48 49.69 73.44 49.64C73.4 49.59 73.66 47.62 73.66 47.62Z" fill="white" stroke="#414042" stroke-width="0.5" stroke-linecap="round" stroke-linejoin="round"/>
<path fill-rule="evenodd" clip-rule="evenodd" d="M76.2 48.61H76.36V47.29C76.3553 47.1767 76.3794 47.064 76.4302 46.9626C76.4809 46.8611 76.5565 46.7742 76.65 46.71C76.82 46.59 77.04 46.44 77.27 46.25C77.3671 46.1706 77.4465 46.0719 77.5032 45.96C77.5599 45.8482 77.5926 45.7257 77.5992 45.6005C77.6057 45.4753 77.5861 45.35 77.5415 45.2329C77.4968 45.1157 77.4282 45.0091 77.34 44.92C76.4705 44.0628 75.301 43.5785 74.08 43.57C73.4484 43.5401 72.8182 43.6531 72.2364 43.9007C71.6547 44.1483 71.1363 44.5241 70.72 45C70.4853 45.2741 70.307 45.5919 70.1955 45.9352C70.0839 46.2784 70.0413 46.6403 70.07 47C70.1701 47.9306 70.3885 48.8447 70.72 49.72C71.0129 50.5774 71.5066 51.3523 72.16 51.98C72.4778 52.2603 72.8862 52.4166 73.31 52.42C74.1321 52.4316 74.9531 52.3579 75.76 52.2C75.8392 51.4081 75.7401 50.6086 75.47 49.86C75.06 48.62 74.62 48.01 75.11 47.72C75.6 47.43 75.95 48.01 76.05 48.22C76.1087 48.3465 76.1588 48.4768 76.2 48.61Z" fill="#414042" stroke="#414042" stroke-width="0.5" stroke-linecap="round" stroke-linejoin="round"/>
<path fill-rule="evenodd" clip-rule="evenodd" d="M252.07 55L242.14 46L236.86 34.36C236.97 34.0596 237.011 33.7384 236.98 33.42C236.98 33.22 236.9 33.02 236.85 32.82C236.8 32.7065 236.775 32.5839 236.775 32.46C236.775 32.3361 236.8 32.2135 236.85 32.1C236.948 31.9425 237.069 31.8008 237.21 31.68C237.355 31.5491 237.508 31.4288 237.67 31.32C237.78 31.25 237.67 30.93 237.47 30.98C237.161 31.0709 236.886 31.2519 236.68 31.5C236.53 31.67 236.44 31.87 236.33 32.01C236.119 31.7825 235.941 31.5267 235.8 31.25C235.56 30.78 234.99 29.19 234.8 28.68C234.786 28.6349 234.756 28.5965 234.715 28.5725C234.674 28.5485 234.626 28.5404 234.58 28.55C234.551 28.5534 234.524 28.5633 234.5 28.5789C234.475 28.5944 234.455 28.6154 234.44 28.64C234.428 28.6649 234.421 28.6922 234.421 28.72C234.421 28.7478 234.428 28.7751 234.44 28.8L235.12 31.18C235.124 31.205 235.121 31.2307 235.111 31.2539C235.101 31.2771 235.084 31.2968 235.063 31.3106C235.041 31.3244 235.017 31.3317 234.991 31.3316C234.966 31.3315 234.941 31.324 234.92 31.31L233.37 28.74C233.349 28.6978 233.311 28.6657 233.266 28.6507C233.222 28.6358 233.173 28.6391 233.13 28.66C233.106 28.6702 233.085 28.6852 233.068 28.7042C233.051 28.7232 233.038 28.7456 233.03 28.77C233.011 28.8181 233.011 28.8719 233.03 28.92L234.44 31.67C234.445 31.6812 234.447 31.6938 234.445 31.706C234.443 31.7182 234.437 31.7295 234.428 31.7383C234.42 31.7471 234.408 31.7529 234.396 31.755C234.384 31.7571 234.371 31.7553 234.36 31.75L232.8 29.59C232.765 29.565 232.722 29.5523 232.679 29.5536C232.635 29.5549 232.594 29.5702 232.56 29.5973C232.526 29.6244 232.502 29.6617 232.491 29.7037C232.48 29.7456 232.483 29.79 232.5 29.83L233.87 32.03L232.6 30.81C232.584 30.7916 232.564 30.7768 232.541 30.7665C232.519 30.7562 232.495 30.7506 232.47 30.75C232.444 30.7492 232.418 30.7541 232.393 30.7645C232.369 30.7748 232.348 30.7904 232.33 30.81C232.298 30.8436 232.28 30.8884 232.28 30.935C232.28 30.9816 232.298 31.0264 232.33 31.06C232.851 31.5696 233.33 32.1215 233.76 32.71C234.212 33.3443 234.613 34.013 234.96 34.71L238.9 48.34C239.031 48.7821 239.26 49.1889 239.57 49.53L248.14 59C248.391 59.2829 248.698 59.5116 249.041 59.6718C249.384 59.8321 249.756 59.9206 250.134 59.932C250.513 59.9433 250.89 59.8773 251.241 59.738C251.593 59.5986 251.913 59.3888 252.181 59.1215C252.449 58.8542 252.66 58.5349 252.8 58.1833C252.94 57.8317 253.007 57.4552 252.997 57.0768C252.986 56.6984 252.899 56.3261 252.74 55.9827C252.58 55.6394 252.352 55.3322 252.07 55.08V55Z" fill="white" stroke="#414042" stroke-width="0.5" stroke-linecap="round" stroke-linejoin="round"/>
<path fill-rule="evenodd" clip-rule="evenodd" d="M261.88 124.82L262.37 127.42C262.397 127.54 262.397 127.664 262.369 127.784C262.341 127.904 262.287 128.016 262.21 128.112C262.133 128.208 262.036 128.286 261.925 128.339C261.814 128.392 261.693 128.42 261.57 128.42H252.3V127.67C252.3 125.5 257.67 127.67 258.09 124.85L261.88 124.82Z" fill="white" stroke="#414042" stroke-width="0.5"/>
<path fill-rule="evenodd" clip-rule="evenodd" d="M248.28 124.82L248.77 127.42C248.797 127.54 248.797 127.664 248.769 127.784C248.741 127.904 248.687 128.016 248.61 128.112C248.534 128.208 248.436 128.286 248.325 128.339C248.214 128.392 248.093 128.42 247.97 128.42H238.66V127.67C238.66 125.5 244.04 127.67 244.46 124.85L248.28 124.82Z" fill="white" stroke="#414042" stroke-width="0.5"/>
<path fill-rule="evenodd" clip-rule="evenodd" d="M254.41 78.67C255.71 81.6 255.49 85.16 255.17 87.29C254.948 88.82 254.911 90.3712 255.06 91.91L255.93 101.19C258.84 105.79 258.28 112.19 261.93 124.82H258.14L250.57 101.82L247 85.44V77.44L254.41 78.67Z" fill="white" stroke="#414042" stroke-width="0.5"/>
<path fill-rule="evenodd" clip-rule="evenodd" d="M244.37 78.7L240.52 97.47C239.98 100.072 239.98 102.758 240.52 105.36L244.52 124.82H248.31C248.31 124.82 247.31 118 247 112C246.822 108.46 246.217 104.955 245.2 101.56L250.36 86.63C251.464 83.6493 251.686 80.4137 251 77.31L250.36 74.39L244.37 78.7Z" fill="white" stroke="#414042" stroke-width="0.5"/>
<path fill-rule="evenodd" clip-rule="evenodd" d="M249.94 43.54C249.097 45.0189 247.843 46.2209 246.33 47C246.284 47.0231 246.244 47.0554 246.211 47.095C246.178 47.1346 246.154 47.1806 246.14 47.23C246.126 47.279 246.123 47.3305 246.132 47.3807C246.141 47.4309 246.16 47.4785 246.19 47.52L246.41 47.82C246.44 47.8771 246.455 47.9406 246.455 48.005C246.455 48.0694 246.44 48.1329 246.41 48.19L245.71 49.52C245.532 49.8473 245.489 50.2311 245.59 50.5897C245.691 50.9483 245.928 51.2533 246.25 51.44C247.08 52.0207 248.077 52.3127 249.089 52.2712C250.101 52.2296 251.071 51.8568 251.85 51.21C252.541 50.6332 253.083 49.8988 253.431 49.0688C253.779 48.2387 253.923 47.3371 253.85 46.44L252.71 43.84L251.17 43.12L249.94 43.54Z" fill="#EFA686"/>
<path fill-rule="evenodd" clip-rule="evenodd" d="M249.94 43.54C249.097 45.0189 247.843 46.2209 246.33 47C246.284 47.0231 246.244 47.0554 246.211 47.095C246.178 47.1346 246.154 47.1806 246.14 47.23C246.126 47.279 246.123 47.3305 246.132 47.3807C246.141 47.4309 246.16 47.4785 246.19 47.52L246.41 47.82C246.44 47.8771 246.455 47.9406 246.455 48.005C246.455 48.0694 246.44 48.1329 246.41 48.19L245.71 49.52C245.532 49.8473 245.489 50.2311 245.59 50.5897C245.691 50.9483 245.928 51.2533 246.25 51.44C247.08 52.0207 248.077 52.3127 249.089 52.2712C250.101 52.2296 251.071 51.8568 251.85 51.21C252.541 50.6332 253.083 49.8988 253.431 49.0688C253.779 48.2387 253.923 47.3371 253.85 46.44L252.71 43.84L251.17 43.12L249.94 43.54Z" fill="white" stroke="#414042" stroke-width="0.5" stroke-linecap="round" stroke-linejoin="round"/>
<path fill-rule="evenodd" clip-rule="evenodd" d="M249.25 45.09C248.54 44.16 249.51 43.27 250.11 43.01C251.068 42.6394 252.121 42.5903 253.11 42.87C254.063 43.1882 254.893 43.7955 255.484 44.6074C256.076 45.4194 256.399 46.3955 256.41 47.4C256.47 47.925 256.47 48.455 256.41 48.98C256.41 48.98 258.9 47.87 260.41 48.98C261.92 50.09 261.48 52.48 261.02 54.51C260.56 56.54 260.68 59.36 262.3 59.87C261.428 60.0551 260.521 59.9761 259.695 59.643C258.868 59.3099 258.16 58.7378 257.66 58C257.05 57.1937 256.767 56.1861 256.87 55.18C257.111 54.1642 257.408 53.1626 257.76 52.18C257.814 51.9419 257.808 51.6942 257.743 51.4588C257.679 51.2235 257.558 51.0075 257.39 50.83C257.222 50.6528 257.012 50.5206 256.78 50.4455C256.547 50.3704 256.3 50.3547 256.06 50.4C256.06 50.4 252.81 54.15 249.14 51.86C249.903 51.6009 250.589 51.1578 251.14 50.57C251.58 49.85 250.81 48.92 249.65 50.28L249.23 49.98C249.23 49.98 249.62 49.41 249.9 48.89C250.18 48.37 249.65 46.66 250.69 46C250.118 45.8762 249.608 45.5538 249.25 45.09Z" fill="#414042" stroke="#414042" stroke-width="0.5" stroke-linecap="round" stroke-linejoin="round"/>
<path fill-rule="evenodd" clip-rule="evenodd" d="M253.91 61.4L252.23 57.48L248.74 54.08L238.75 49.4L237.06 53.15L249.91 61.49L253.91 61.4Z" fill="#25C16F"/>
<path d="M253.91 61.4L252.23 57.48L248.74 54.08L238.75 49.4L237.06 53.15L249.91 61.49L253.91 61.4Z" stroke="#414042" stroke-width="0.5" stroke-linecap="round" stroke-linejoin="round"/>
<path fill-rule="evenodd" clip-rule="evenodd" d="M250.14 54.54C250.73 54.4914 251.321 54.6184 251.839 54.9049C252.356 55.1913 252.778 55.6246 253.05 56.15C254.72 59.38 253.97 64.25 253.53 68.86C253.211 72.1563 253.509 75.4832 254.41 78.67H244.41C244.6 77.1559 244.6 75.6241 244.41 74.11C244.14 70.74 244.35 69.7 243.18 66.94C242.773 65.9684 242.577 64.9219 242.602 63.869C242.628 62.8161 242.876 61.7805 243.33 60.83C244.13 59.28 246.94 54.83 246.94 54.83L250.14 54.54Z" fill="#25C16F"/>
<path d="M250.14 54.54C250.73 54.4914 251.321 54.6184 251.839 54.9049C252.356 55.1913 252.778 55.6246 253.05 56.15C254.72 59.38 253.97 64.25 253.53 68.86C253.211 72.1563 253.509 75.4832 254.41 78.67H244.41C244.6 77.1559 244.6 75.6241 244.41 74.11C244.14 70.74 244.35 69.7 243.18 66.94C242.773 65.9684 242.577 64.9219 242.602 63.869C242.628 62.8161 242.876 61.7805 243.33 60.83C244.13 59.28 246.94 54.83 246.94 54.83L250.14 54.54Z" stroke="#414042" stroke-width="0.5"/>
<path fill-rule="evenodd" clip-rule="evenodd" d="M251.35 54.7L246.27 54.83L246.83 50.72" fill="#EFA686"/>
<path fill-rule="evenodd" clip-rule="evenodd" d="M252.07 55L242.66 46.46L239.66 49.53L247.96 58.92C248.226 59.2181 248.549 59.4601 248.909 59.6318C249.27 59.8035 249.661 59.9015 250.06 59.92C250.462 59.9409 250.863 59.8809 251.241 59.7434C251.619 59.606 251.966 59.394 252.26 59.12C252.522 58.837 252.725 58.5047 252.857 58.1425C252.99 57.7803 253.049 57.3955 253.031 57.0103C253.013 56.625 252.919 56.2472 252.754 55.8987C252.589 55.5501 252.357 55.2379 252.07 54.98V55Z" fill="#25C16F"/>
<path d="M253.6 57.58C253.389 56.5746 252.851 55.6674 252.07 55L242.66 46.46L239.66 49.53L245.87 56.53" stroke="#414042" stroke-width="0.5" stroke-linecap="round" stroke-linejoin="round"/>
<path fill-rule="evenodd" clip-rule="evenodd" d="M40.27 15.66C40.07 15.66 39.86 15.66 39.66 15.72V15.49C39.7847 14.1639 39.3774 12.8426 38.5279 11.8168C37.6783 10.791 36.4561 10.1447 35.13 10.02C33.8039 9.89535 32.4826 10.3026 31.4568 11.1521C30.431 12.0017 29.7847 13.2239 29.66 14.55C29.2399 14.4316 28.8064 14.3678 28.37 14.36C27.2105 14.3505 26.0837 14.7443 25.1826 15.474C24.2814 16.2037 23.6619 17.2239 23.43 18.36C22.2629 18.3757 21.1381 18.7992 20.2504 19.5572C19.3628 20.3152 18.7683 21.3598 18.57 22.51H45C45.2301 21.9342 45.3489 21.32 45.35 20.7C45.35 19.3739 44.8232 18.1021 43.8855 17.1645C42.9479 16.2268 41.6761 15.7 40.35 15.7L40.27 15.66Z" fill="white" stroke="#414042" stroke-width="0.5" stroke-linecap="round" stroke-linejoin="round"/>
<path fill-rule="evenodd" clip-rule="evenodd" d="M18.59 22.52H12.77H18.59Z" fill="white"/>
<path d="M18.59 22.52H12.77" stroke="#414042" stroke-width="0.5" stroke-linecap="round" stroke-linejoin="round"/>
<path fill-rule="evenodd" clip-rule="evenodd" d="M10.71 22.52H8.39999H10.71Z" fill="white"/>
<path d="M10.71 22.52H8.39999" stroke="#414042" stroke-width="0.63" stroke-linecap="round" stroke-linejoin="round"/>
<path fill-rule="evenodd" clip-rule="evenodd" d="M308.72 5.52C308.716 4.2637 308.262 3.05049 307.439 2.10066C306.617 1.15082 305.481 0.527332 304.239 0.343397C302.996 0.159463 301.728 0.427277 300.666 1.09821C299.604 1.76915 298.818 2.79872 298.45 4C297.89 3.74936 297.277 3.64295 296.665 3.69051C296.054 3.73806 295.464 3.93806 294.95 4.27223C294.436 4.6064 294.014 5.06409 293.722 5.60348C293.43 6.14287 293.278 6.74677 293.28 7.36V7.47H293.17C292.264 7.47031 291.39 7.80695 290.717 8.41474C290.045 9.02253 289.622 9.85822 289.53 10.76H304C305.299 10.6328 306.503 10.0247 307.376 9.05524C308.249 8.08573 308.729 6.8248 308.72 5.52Z" fill="white" stroke="#414042" stroke-width="0.5" stroke-linecap="round" stroke-linejoin="round"/>
<path fill-rule="evenodd" clip-rule="evenodd" d="M290.32 10.72H280H290.32Z" fill="white"/>
<path d="M290.32 10.72H280" stroke="#414042" stroke-width="0.5" stroke-linecap="round" stroke-linejoin="round"/>
<path fill-rule="evenodd" clip-rule="evenodd" d="M277.43 10.72H275.09H277.43Z" fill="white"/>
<path d="M277.43 10.72H275.09" stroke="#414042" stroke-width="0.5" stroke-linecap="round" stroke-linejoin="round"/>
<path d="M187.91 16.84H200.25C200.794 16.84 201.333 16.9479 201.834 17.1576C202.336 17.3672 202.792 17.6745 203.174 18.0614C203.556 18.4484 203.858 18.9074 204.062 19.4118C204.265 19.9162 204.367 20.4561 204.36 21V33.3C204.36 37.6655 202.626 41.8521 199.539 44.939C196.452 48.0258 192.265 49.76 187.9 49.76C183.536 49.7573 179.352 48.022 176.268 44.9354C173.183 41.8489 171.45 37.6637 171.45 33.3C171.45 28.9345 173.184 24.7479 176.271 21.661C179.358 18.5742 183.545 16.84 187.91 16.84Z" fill="#25C16F"/>
<path d="M193 26.6H184.77C184.23 26.6 183.696 26.7063 183.197 26.9129C182.699 27.1194 182.245 27.4221 181.864 27.8038C181.482 28.1854 181.179 28.6385 180.973 29.1372C180.766 29.6358 180.66 30.1703 180.66 30.71V37.71C180.66 37.9513 180.756 38.1828 180.927 38.3535C181.097 38.5241 181.329 38.62 181.57 38.62H193C194.091 38.62 195.137 38.1873 195.91 37.4168C196.682 36.6463 197.117 35.601 197.12 34.51V30.71C197.117 29.619 196.682 28.5737 195.91 27.8032C195.137 27.0327 194.091 26.6 193 26.6ZM190 35.4H184C183.788 35.4 183.584 35.3157 183.434 35.1657C183.284 35.0157 183.2 34.8122 183.2 34.6C183.2 34.3878 183.284 34.1843 183.434 34.0343C183.584 33.8843 183.788 33.8 184 33.8H190C190.212 33.8 190.416 33.8843 190.566 34.0343C190.716 34.1843 190.8 34.3878 190.8 34.6C190.8 34.8122 190.716 35.0157 190.566 35.1657C190.416 35.3157 190.212 35.4 190 35.4ZM193.66 31.48H184C183.788 31.48 183.584 31.3957 183.434 31.2457C183.284 31.0957 183.2 30.8922 183.2 30.68C183.2 30.4678 183.284 30.2643 183.434 30.1143C183.584 29.9643 183.788 29.88 184 29.88H193.6C193.812 29.88 194.016 29.9643 194.166 30.1143C194.316 30.2643 194.4 30.4678 194.4 30.68C194.4 30.8922 194.316 31.0957 194.166 31.2457C194.016 31.3957 193.812 31.48 193.6 31.48H193.66Z" fill="white"/>
<defs>
<linearGradient id="paint0_linear" x1="68.4432" y1="39.33" x2="76.3632" y2="39.33" gradientUnits="userSpaceOnUse">
<stop stop-color="#D18B6D"/>
<stop offset="0.06" stop-color="#D49377" stop-opacity="0.93"/>
<stop offset="0.53" stop-color="#EBCDC0" stop-opacity="0.43"/>
<stop offset="0.85" stop-color="#F9F1ED" stop-opacity="0.12"/>
<stop offset="1" stop-color="white" stop-opacity="0"/>
</linearGradient>
</defs>
</svg>
