<?xml version="1.0" encoding="UTF-8"?>
<svg width="157px" height="150px" viewBox="0 0 157 150" version="1.1" xmlns="http://www.w3.org/2000/svg" xmlns:xlink="http://www.w3.org/1999/xlink">
    <!-- Generator: Sketch 61.2 (89653) - https://sketch.com -->
    <title>Group 2</title>
    <desc>Created with Sketch.</desc>
    <defs>
        <polygon id="path-1" points="0 0.0719507054 19.7996435 0.0719507054 19.7996435 19.8718138 0 19.8718138"></polygon>
        <polygon id="path-3" points="0.125076494 0.308053444 39.2039252 0.308053444 39.2039252 1.46390041 0.125076494 1.46390041"></polygon>
    </defs>
    <g id="mocks-" stroke="none" stroke-width="1" fill="none" fill-rule="evenodd">
        <g id="Group-2" transform="translate(1.000000, 1.000000)">
            <g id="Group-6">
                <g id="Group-12">
                    <g id="Group">
                        <g id="Group-45" transform="translate(8.295436, 24.398340)">
                            <path d="M72.1439402,104.073658 L113.922194,62.2954038 C116.526961,59.691125 120.749338,59.691125 123.354105,62.2954038 C125.958383,64.9001706 125.958383,69.1225474 123.354105,71.7273142 L81.5758506,113.505568 C78.9715718,116.109847 74.7487071,116.109847 72.1439402,113.505568 C69.5396614,110.900801 69.5396614,106.677937 72.1439402,104.073658" id="Fill-1" fill="#F2F4F9"></path>
                            <g id="Group-5" transform="translate(0.000000, 61.870287)">
                                <mask id="mask-2" fill="white">
                                    <use xlink:href="#path-1"></use>
                                </mask>
                                <g id="Clip-4"></g>
                                <path d="M1.95347751,8.4863283 L8.41415801,2.02515983 C11.0189248,-0.579119004 15.2413016,-0.579119004 17.8460684,2.02515983 C20.4508352,4.62992664 20.4508352,8.85279137 17.8460684,11.4570702 L11.3853879,17.9182387 C8.78062108,20.5230055 4.55775635,20.5230055 1.95347751,17.9182387 C-0.651289295,15.3134719 -0.651289295,11.0910951 1.95347751,8.4863283" id="Fill-3" fill="#F2F4F9" mask="url(#mask-2)"></path>
                            </g>
                            <path d="M75.1122423,82.6151223 L94.2058954,63.5214692 C92.9030241,64.8243406 92.2530523,66.5302725 92.2554921,68.2362045 C92.2530523,69.9421364 92.9030241,71.6480684 94.2058954,72.9509398 C96.8116382,75.5561945 101.034015,75.5561945 103.637318,72.9528916 L84.5436647,92.0465447 C85.8465361,90.7436734 86.4969959,89.0382294 86.494556,87.3322974 C86.4969959,85.6263655 85.8440963,83.9179937 84.5412249,82.6151223 C81.937922,80.0118194 77.7155452,80.0118194 75.1122423,82.6151223" id="Fill-6" fill="#F2F4F9"></path>
                            <path d="M66.9511927,53.5285922 L84.8405437,35.6387532 C83.5376724,36.9416246 82.8877006,38.6475565 82.8901404,40.3534885 C82.8877006,42.0594204 83.5376724,43.7653524 84.8405437,45.0682237 C87.4462865,47.6734785 91.6691512,47.6734785 94.2719661,45.0706636 L76.3826151,62.9600146 C77.6854865,61.6571432 78.3354583,59.9516993 78.3330184,58.2457673 C78.3354583,56.5398354 77.6830466,54.8314636 76.3801753,53.5285922 C73.7768724,50.9252893 69.5540076,50.9252893 66.9511927,53.5285922" id="Fill-8" fill="#F2F4F9"></path>
                            <path d="M60.6152853,78.3448272 L112.809679,26.1499459 C115.414445,23.5456671 119.636822,23.5456671 122.241589,26.1499459 C124.846356,28.7547127 124.846356,32.9775774 122.241589,35.5818563 L70.0467077,87.7767376 C67.4424289,90.3810164 63.2195641,90.3810164 60.6152853,87.7767376 C58.0105185,85.1719708 58.0105185,80.9491061 60.6152853,78.3448272" id="Fill-10" fill="#F2F4F9"></path>
                            <path d="M9.3329995,92.4915705 L80.3775505,21.4470194 C82.9823173,18.8422526 87.2051821,18.8422526 89.8094609,21.4470194 C92.4142277,24.0512983 92.4142277,28.274163 89.8094609,30.8789298 L18.7649099,101.923481 C16.1601431,104.52776 11.9377663,104.52776 9.3329995,101.923481 C6.7282327,99.318714 6.7282327,95.0963373 9.3329995,92.4915705" id="Fill-12" fill="#F2F4F9"></path>
                            <path d="M21.8914596,45.7199034 L48.2563061,19.3550569 C50.8605849,16.7507781 55.0834496,16.7507781 57.6877285,19.3550569 C60.2924953,21.9598237 60.2924953,26.1826885 57.6877285,28.7869673 L31.32337,55.1518138 C28.7186032,57.7560926 24.4962264,57.7560926 21.8914596,55.1518138 C19.2871807,52.547047 19.2871807,48.3241822 21.8914596,45.7199034" id="Fill-14" fill="#F2F4F9"></path>
                            <path d="M65.5001746,2.11109079 L65.6577879,1.95347751 C68.2625547,-0.650801328 72.4849315,-0.650801328 75.0896983,1.95347751 C77.6939771,4.55775635 77.6939771,8.78062108 75.0896983,11.3853879 L74.932085,11.5430012 C72.3278061,14.14728 68.1049414,14.14728 65.5001746,11.5430012 L65.5001746,11.5430012 C62.8958958,8.93823436 62.8958958,4.71536963 65.5001746,2.11109079" id="Fill-16" fill="#F2F4F9"></path>
                            <path d="M45.2776591,93.2353295 L45.4352724,93.0777162 C48.0395512,90.4734373 52.2624159,90.4734373 54.8671827,93.0777162 C57.4714616,95.681995 57.4714616,99.9048598 54.8671827,102.509627 L54.7095695,102.66724 C52.1048027,105.271519 47.8824259,105.271519 45.2776591,102.66724 L45.2776591,102.66724 C42.6733802,100.062473 42.6733802,95.8396083 45.2776591,93.2353295" id="Fill-18" fill="#F2F4F9"></path>
                            <line x1="135.179346" y1="117.210163" x2="137.91684" y2="117.210163" id="Fill-20" fill="#E5EEFD"></line>
                            <path d="M135.179346,116.862633 C135.635595,116.686477 136.091844,116.669399 136.548581,116.675254 C137.004342,116.680134 137.461079,116.71234 137.91684,116.808957 C138.138376,116.85629 138.279887,117.073435 138.23353,117.294972 C138.198396,117.458441 138.071037,117.578481 137.91684,117.611174 C137.461079,117.707792 137.004342,117.739998 136.548581,117.745365 C136.091844,117.751221 135.635595,117.733654 135.179346,117.557498 C134.987087,117.483327 134.891933,117.268134 134.966104,117.075875 C135.005142,116.974378 135.085656,116.899231 135.179346,116.862633" id="Fill-22" fill="#717791"></path>
                            <line x1="10.1898204" y1="117.210163" x2="133.167703" y2="117.210163" id="Fill-24" fill="#E5EEFD"></line>
                            <path d="M10.1898204,116.880639 C15.3139598,116.730834 20.4380993,116.706435 25.5622387,116.709851 L40.934169,116.697652 L71.6790055,116.673253 L102.423354,116.648367 L117.795772,116.636168 C122.919424,116.64056 128.043563,116.651783 133.167703,116.780118 C133.404854,116.786462 133.592722,116.9836 133.586999,117.220752 C133.580522,117.450585 133.394607,117.63406 133.167703,117.639916 C128.043563,117.768739 122.919424,117.779962 117.795772,117.783866 L102.423354,117.771667 L71.6790055,117.747268 L40.934169,117.722382 L25.5622387,117.710183 C20.4380993,117.713599 15.3139598,117.689688 10.1898204,117.539882 C10.0078088,117.534515 9.86483452,117.382269 9.87005584,117.200746 C9.87508183,117.025565 10.0170802,116.886007 10.1898204,116.880639" id="Fill-26" fill="#717791"></path>
                            <line x1="7.16432863" y1="117.210163" x2="7.56446141" y2="117.210163" id="Fill-28" fill="#E5EEFD"></line>
                            <path d="M7.16432863,116.722197 C7.23118008,116.70707 7.29754357,116.722197 7.36439502,116.72366 C7.39806473,116.722197 7.43124647,116.739275 7.46442822,116.747571 C7.49809793,116.756354 7.53127967,116.768065 7.56446141,116.790512 C7.79624564,116.946173 7.85772946,117.260912 7.70206805,117.492696 C7.66400664,117.548324 7.61667386,117.594681 7.56446141,117.629815 C7.53127967,117.652261 7.49809793,117.663972 7.46442822,117.672756 C7.43124647,117.681051 7.39806473,117.69813 7.36439502,117.696666 C7.29754357,117.69813 7.23118008,117.713257 7.16432863,117.69813 C6.89448299,117.637622 6.72564647,117.369728 6.78615436,117.100371 C6.8295834,116.905672 6.98182905,116.763674 7.16432863,116.722197" id="Fill-30" fill="#717791"></path>
                            <line x1="2.2403532" y1="117.210163" x2="4.23320963" y2="117.210163" id="Fill-32" fill="#E5EEFD"></line>
                            <path d="M2.2403532,116.854875 C2.57265859,116.768505 2.90447602,116.736787 3.23678141,116.722148 C3.5690868,116.700677 3.90090423,116.714828 4.23320963,116.815837 C4.45084282,116.882201 4.57332249,117.112521 4.50744697,117.330154 C4.46596979,117.465321 4.3586171,117.564866 4.23320963,117.604392 C3.90090423,117.705401 3.5690868,117.719552 3.23678141,117.698569 C2.90447602,117.683442 2.57265859,117.651724 2.2403532,117.565354 C2.04419054,117.514606 1.92610257,117.314051 1.97733909,117.117889 C2.01198473,116.984674 2.11592166,116.887568 2.2403532,116.854875" id="Fill-34" fill="#717791"></path>
                            <line x1="57.5164033" y1="123.75209" x2="95.8993842" y2="123.75209" id="Fill-36" fill="#E5EEFD"></line>
                            <g id="Group-40" transform="translate(57.092116, 122.866138)">
                                <mask id="mask-4" fill="white">
                                    <use xlink:href="#path-3"></use>
                                </mask>
                                <g id="Clip-39"></g>
                                <path d="M0.424287137,0.556428548 C2.02384232,0.405158838 3.62339751,0.385640166 5.22246473,0.382712365 L10.0201544,0.357338091 L19.6160216,0.308053444 L29.2114008,0.309517344 L34.0090905,0.310493278 C35.6086456,0.31781278 37.2082008,0.327084149 38.807268,0.455907386 C39.0449079,0.475426058 39.2215519,0.683299917 39.2025212,0.920451784 C39.1854423,1.13466921 39.0146539,1.29911402 38.807268,1.3157049 C37.2082008,1.4450161 35.6086456,1.45428747 34.0090905,1.461119 L29.2114008,1.46209494 L19.6160216,1.4640468 L10.0201544,1.41476216 L5.22246473,1.38938788 C3.62339751,1.38597212 2.02384232,1.36694141 0.424287137,1.21518373 C0.242763485,1.1981049 0.109060581,1.03658788 0.126627386,0.854576266 C0.14126639,0.694035187 0.26960166,0.571067552 0.424287137,0.556428548" id="Fill-38" fill="#717791" mask="url(#mask-4)"></path>
                            </g>
                            <line x1="41.7241872" y1="123.75209" x2="51.5596461" y2="123.75209" id="Fill-41" fill="#E5EEFD"></line>
                            <path d="M41.7241872,123.396704 C43.3632677,123.310334 45.0028362,123.278616 46.6419167,123.263977 C48.2814851,123.247874 49.9205656,123.254218 51.5596461,123.358155 C51.7777673,123.371818 51.9427001,123.559197 51.929037,123.77683 C51.9163499,123.977873 51.7558088,124.134022 51.5596461,124.146221 C49.9205656,124.250158 48.2814851,124.256014 46.6419167,124.240399 C45.0028362,124.225272 43.3632677,124.193554 41.7241872,124.107184 C41.5280246,124.096936 41.3772428,123.929564 41.3879781,123.733401 C41.3972495,123.550414 41.5455914,123.406951 41.7241872,123.396704" id="Fill-43" fill="#717791"></path>
                        </g>
                        <g id="Group-48" transform="translate(0.000000, 37.085477)" stroke="#C9D7ED" stroke-linecap="round" stroke-linejoin="round">
                            <path d="M140.183045,75.1000236 C140.183045,75.8032814 139.61271,76.3730314 138.910037,76.3730314 C138.20678,76.3730314 137.63703,75.8032814 137.63703,75.1000236 C137.63703,74.3967659 138.20678,73.8270158 138.910037,73.8270158 C139.61271,73.8270158 140.183045,74.3967659 140.183045,75.1000236 Z" id="Stroke-15" stroke-width="1.368864"></path>
                            <polygon id="Stroke-17" stroke-width="0.868476" points="154.396581 11.1967887 155.017861 13.4693477 152.744716 14.0906271 152.123437 11.8174825"></polygon>
                            <g id="Group-23" transform="translate(0.000000, 9.621339)" stroke-width="1.368864">
                                <line x1="3.24716534" y1="0.346007502" x2="3.24716534" y2="6.64780601" id="Stroke-19"></line>
                                <line x1="6.39794749" y1="3.49708242" x2="0.0955634191" y2="3.49708242" id="Stroke-21"></line>
                            </g>
                            <path d="M45.5475633,8.08459499 C45.5475633,8.78785275 44.9772277,9.35760279 44.2745555,9.35760279 C43.5712977,9.35760279 43.0015477,8.78785275 43.0015477,8.08459499 C43.0015477,7.38133723 43.5712977,6.81158719 44.2745555,6.81158719 C44.9772277,6.81158719 45.5475633,7.38133723 45.5475633,8.08459499 Z" id="Stroke-24" stroke-width="1.368864"></path>
                            <path d="M140.585618,35.671974 C140.585618,36.3752317 140.015868,36.9449818 139.31261,36.9449818 C138.609938,36.9449818 138.039602,36.3752317 138.039602,35.671974 C138.039602,34.9693018 138.609938,34.3995517 139.31261,34.3995517 C140.015868,34.3995517 140.585618,34.9693018 140.585618,35.671974 Z" id="Stroke-26" stroke-width="1.154244"></path>
                            <polygon id="Stroke-28" stroke-width="0.868476" points="70.2577924 0.432670407 70.8784862 2.70522941 68.6059272 3.32650875 67.9846478 1.05336418"></polygon>
                            <path d="M26.2578061,47.2044643 C26.2578061,46.3858512 26.9218313,45.721826 27.7398589,45.721826 C28.5590575,45.721826 29.2224972,46.3858512 29.2224972,47.2044643 C29.2224972,48.0230774 28.5590575,48.6865171 27.7398589,48.6865171 C26.9218313,48.6865171 26.2578061,48.0230774 26.2578061,47.2044643 Z" id="Stroke-35" stroke-width="1.154244"></path>
                        </g>
                        <g id="Group-11" transform="translate(23.910373, 2.927801)">
                            <path d="M60.1858452,102.814606 C52.0713477,101.396379 26.6730658,95.0717437 34.8599777,72.2803758 C34.8599777,72.2803758 46.6771674,41.5575954 81.2297065,49.0435917 C81.2297065,49.0435917 93.0933506,52.5918911 92.8214555,63.3529255 C92.8214555,63.3529255 88.6378233,98.9124329 16.6006502,67.6636242 C16.6006502,67.6636242 -40.0737664,26.3642609 58.7935784,0.341576763" id="Stroke-1" stroke="#CFD7DF" stroke-width="0.98" stroke-linecap="round" stroke-dasharray="1.561335968971252,1.561335968971252"></path>
                            <polygon id="Fill-10" fill="#DBE2E8" points="29.8549217 87.2208068 28.3847753 87.2208068 28.3847753 85.735631 27.4037668 85.735631 27.4037668 87.2208068 25.9336204 87.2208068 25.9336204 88.2100131 27.4037668 88.2100131 27.4037668 89.6965552 28.3847753 89.6965552 28.3847753 88.2100131 29.8549217 88.2100131"></polygon>
                        </g>
                        <circle id="Oval" stroke="#CFD7DF" stroke-width="0.98" fill="#FFFFFF" cx="84.4182573" cy="2.43983402" r="2.43983402"></circle>
                    </g>
                    <g id="requesters" transform="translate(75.000000, 61.000000)">
                        <g id="Group-13" transform="translate(8.320000, 0.000000)">
                            <g id="Page-1" transform="translate(2.218667, 3.821176)" fill="#FFFFFF" fill-rule="nonzero">
                                <path d="M28.0064,14.208 C28.0064,6.56564706 21.7941333,0.451764706 14.0288,0.451764706 C6.26346667,0.451764706 0.0512,6.56564706 0.0512,14.208 C0.0512,15.2997647 0.273066667,16.1731765 0.494933333,17.0465882 C1.3824,17.0465882 2.49173333,17.0465882 3.3792,17.2649412 C3.3792,17.2649412 2.93546667,10.9327059 4.48853333,10.9327059 C6.0416,10.9327059 10.9226667,11.1510588 10.9226667,6.784 C10.9226667,8.74917647 17.3568,13.1162353 23.7909333,13.1162353 C23.7909333,14.6447059 24.2346667,15.9548235 24.9002667,17.2649412 L27.5626667,17.0465882 C27.7845333,16.1731765 27.7845333,15.0814118 28.0064,14.208 Z" id="Shape"></path>
                            </g>
                            <path d="M30.2250667,15.0814118 C30.2250667,7.00235294 23.5690667,0.451764706 15.36,0.451764706 C7.15093333,0.451764706 0.494933333,7.00235294 0.494933333,15.0814118 C0.494933333,16.1731765 0.7168,17.2649412 0.938666667,18.1383529 C0.7168,19.0117647 0.494933333,19.8851765 0.494933333,20.5402353 C0.494933333,22.9421176 1.60426667,25.1256471 2.7136,25.1256471 C2.93546667,25.1256471 3.15733333,25.1256471 3.3792,24.9072941 C5.15413333,31.6762353 9.81333333,36.48 15.36,36.48 C20.9066667,36.48 25.5658667,31.6762353 27.3408,24.9072941 C27.5626667,25.1256471 27.7845333,25.1256471 28.0064,25.1256471 C29.3376,25.1256471 30.2250667,23.1604706 30.2250667,20.5402353 C30.2250667,19.6668235 30.0032,18.7934118 29.7813333,18.1383529 C30.0032,17.2649412 30.2250667,16.1731765 30.2250667,15.0814118 Z" id="_Path_" stroke="#717791" stroke-width="1.6" fill="#FFFFFF" stroke-linecap="round" stroke-linejoin="round"></path>
                            <path d="M30.2250667,15.0814118 C30.2250667,7.00235294 23.5690667,0.451764706 15.36,0.451764706 C7.15093333,0.451764706 0.494933333,7.00235294 0.494933333,15.0814118 C0.494933333,16.1731765 0.7168,17.2649412 0.938666667,18.1383529 C2.048,18.1383529 2.93546667,18.1383529 4.0448,18.3567059 C4.0448,18.3567059 3.60106667,11.5877647 5.15413333,11.5877647 C6.7072,11.5877647 12.032,11.8061176 12.032,7.00235294 C12.032,8.96752941 18.9098667,13.7712941 25.7877333,13.7712941 C26.0096,15.2997647 26.2314667,16.8282353 26.8970667,18.3567059 L30.0032,18.1383529 C30.0032,17.2649412 30.0032,16.1731765 30.2250667,15.0814118 Z" id="Shape_1_" stroke="#717791" stroke-width="1.6" fill="#CBDBFF" fill-rule="nonzero" stroke-linecap="round" stroke-linejoin="round"></path>
                        </g>
                        <path d="M0,60.8 L0,57.0697143 C0,44.3428571 10.3577358,37.76 23.36,37.76 C36.3622642,37.76 46.72,44.3428571 46.72,57.0697143 L46.72,60.8 L0,60.8 Z" id="Shape_2_" stroke="#717791" stroke-width="1.6" fill="#FFFFFF" stroke-linecap="round" stroke-linejoin="round"></path>
                    </g>
                    <g id="requesters" transform="translate(29.000000, 53.000000)">
                        <g id="Group-13" transform="translate(10.400000, 0.000000)">
                            <g id="Page-1" transform="translate(2.773333, 4.776471)" fill="#FFFFFF" fill-rule="nonzero">
                                <path d="M35.008,17.76 C35.008,8.20705882 27.2426667,0.564705882 17.536,0.564705882 C7.82933333,0.564705882 0.064,8.20705882 0.064,17.76 C0.064,19.1247059 0.341333333,20.2164706 0.618666667,21.3082353 C1.728,21.3082353 3.11466667,21.3082353 4.224,21.5811765 C4.224,21.5811765 3.66933333,13.6658824 5.61066667,13.6658824 C7.552,13.6658824 13.6533333,13.9388235 13.6533333,8.48 C13.6533333,10.9364706 21.696,16.3952941 29.7386667,16.3952941 C29.7386667,18.3058824 30.2933333,19.9435294 31.1253333,21.5811765 L34.4533333,21.3082353 C34.7306667,20.2164706 34.7306667,18.8517647 35.008,17.76 Z" id="Shape"></path>
                            </g>
                            <path d="M37.7813333,18.8517647 C37.7813333,8.75294118 29.4613333,0.564705882 19.2,0.564705882 C8.93866667,0.564705882 0.618666667,8.75294118 0.618666667,18.8517647 C0.618666667,20.2164706 0.896,21.5811765 1.17333333,22.6729412 C0.896,23.7647059 0.618666667,24.8564706 0.618666667,25.6752941 C0.618666667,28.6776471 2.00533333,31.4070588 3.392,31.4070588 C3.66933333,31.4070588 3.94666667,31.4070588 4.224,31.1341176 C6.44266667,39.5952941 12.2666667,45.6 19.2,45.6 C26.1333333,45.6 31.9573333,39.5952941 34.176,31.1341176 C34.4533333,31.4070588 34.7306667,31.4070588 35.008,31.4070588 C36.672,31.4070588 37.7813333,28.9505882 37.7813333,25.6752941 C37.7813333,24.5835294 37.504,23.4917647 37.2266667,22.6729412 C37.504,21.5811765 37.7813333,20.2164706 37.7813333,18.8517647 Z" id="_Path_" stroke="#717791" stroke-width="2" fill="#FFFFFF" stroke-linecap="round" stroke-linejoin="round"></path>
                            <path d="M37.7813333,18.8517647 C37.7813333,8.75294118 29.4613333,0.564705882 19.2,0.564705882 C8.93866667,0.564705882 0.618666667,8.75294118 0.618666667,18.8517647 C0.618666667,20.2164706 0.896,21.5811765 1.17333333,22.6729412 C2.56,22.6729412 3.66933333,22.6729412 5.056,22.9458824 C5.056,22.9458824 4.50133333,14.4847059 6.44266667,14.4847059 C8.384,14.4847059 15.04,14.7576471 15.04,8.75294118 C15.04,11.2094118 23.6373333,17.2141176 32.2346667,17.2141176 C32.512,19.1247059 32.7893333,21.0352941 33.6213333,22.9458824 L37.504,22.6729412 C37.504,21.5811765 37.504,20.2164706 37.7813333,18.8517647 Z" id="Shape_1_" stroke="#717791" stroke-width="2" fill="#CBDBFF" fill-rule="nonzero" stroke-linecap="round" stroke-linejoin="round"></path>
                        </g>
                        <path d="M0,76 L0,71.3371429 C0,55.4285714 12.9471698,47.2 29.2,47.2 C45.4528302,47.2 58.4,55.4285714 58.4,71.3371429 L58.4,76 L0,76 Z" id="Shape_2_" stroke="#717791" stroke-width="2" fill="#FFFFFF" stroke-linecap="round" stroke-linejoin="round"></path>
                    </g>
                </g>
            </g>
        </g>
    </g>
</svg>